<mxfile host="app.diagrams.net" agent="Mozilla/5.0 (Windows NT 10.0; Win64; x64) AppleWebKit/537.36 (KHTML, like Gecko) Chrome/131.0.0.0 Safari/537.36 Edg/131.0.0.0" version="26.0.5">
  <diagram name="Page-1" id="e7e014a7-5840-1c2e-5031-d8a46d1fe8dd">
    <mxGraphModel dx="1212" dy="821" grid="1" gridSize="10" guides="1" tooltips="1" connect="1" arrows="1" fold="1" page="1" pageScale="1" pageWidth="1169" pageHeight="826" background="none" math="0" shadow="0">
      <root>
        <mxCell id="0" />
        <mxCell id="1" parent="0" />
        <mxCell id="vcQ3vcWKIqtt8Fj19UPa-41" value="Ouvrir l&#39;application" style="ellipse;whiteSpace=wrap;html=1;" parent="1" vertex="1">
          <mxGeometry x="430" y="230" width="140" height="70" as="geometry" />
        </mxCell>
        <mxCell id="vcQ3vcWKIqtt8Fj19UPa-42" value="Sportif" style="shape=umlActor;verticalLabelPosition=bottom;verticalAlign=top;html=1;" parent="1" vertex="1">
          <mxGeometry x="300" y="380" width="30" height="60" as="geometry" />
        </mxCell>
        <mxCell id="JHELf1r17yUJ11uTxtFr-8" value="Ajout d&#39;un exercice" style="shape=umlFrame;whiteSpace=wrap;html=1;pointerEvents=0;" vertex="1" parent="1">
          <mxGeometry x="390" y="180" width="350" height="620" as="geometry" />
        </mxCell>
        <mxCell id="JHELf1r17yUJ11uTxtFr-11" value="Se connecter" style="ellipse;whiteSpace=wrap;html=1;" vertex="1" parent="1">
          <mxGeometry x="430" y="320" width="140" height="70" as="geometry" />
        </mxCell>
        <mxCell id="JHELf1r17yUJ11uTxtFr-12" value="Aller sur l&#39;écran journal" style="ellipse;whiteSpace=wrap;html=1;" vertex="1" parent="1">
          <mxGeometry x="430" y="410" width="140" height="70" as="geometry" />
        </mxCell>
        <mxCell id="JHELf1r17yUJ11uTxtFr-13" value="Choisir l&#39;exercice parmis la liste" style="ellipse;whiteSpace=wrap;html=1;" vertex="1" parent="1">
          <mxGeometry x="430" y="590" width="150" height="70" as="geometry" />
        </mxCell>
        <mxCell id="JHELf1r17yUJ11uTxtFr-14" value="Appuyer sur ajouter exercice" style="ellipse;whiteSpace=wrap;html=1;" vertex="1" parent="1">
          <mxGeometry x="430" y="500" width="140" height="70" as="geometry" />
        </mxCell>
        <mxCell id="JHELf1r17yUJ11uTxtFr-15" value="Introduire les données: poids, set et répétitions" style="ellipse;whiteSpace=wrap;html=1;" vertex="1" parent="1">
          <mxGeometry x="430" y="680" width="150" height="70" as="geometry" />
        </mxCell>
        <mxCell id="JHELf1r17yUJ11uTxtFr-27" value="" style="endArrow=classic;html=1;rounded=0;entryX=0;entryY=0.5;entryDx=0;entryDy=0;" edge="1" parent="1" target="JHELf1r17yUJ11uTxtFr-12">
          <mxGeometry width="50" height="50" relative="1" as="geometry">
            <mxPoint x="330" y="420" as="sourcePoint" />
            <mxPoint x="370" y="450" as="targetPoint" />
          </mxGeometry>
        </mxCell>
        <mxCell id="JHELf1r17yUJ11uTxtFr-28" value="" style="endArrow=classic;html=1;rounded=0;entryX=0;entryY=0.5;entryDx=0;entryDy=0;" edge="1" parent="1">
          <mxGeometry width="50" height="50" relative="1" as="geometry">
            <mxPoint x="330" y="420" as="sourcePoint" />
            <mxPoint x="430" y="535" as="targetPoint" />
          </mxGeometry>
        </mxCell>
        <mxCell id="JHELf1r17yUJ11uTxtFr-29" value="" style="endArrow=classic;html=1;rounded=0;entryX=-0.003;entryY=0.372;entryDx=0;entryDy=0;entryPerimeter=0;" edge="1" parent="1" target="JHELf1r17yUJ11uTxtFr-13">
          <mxGeometry width="50" height="50" relative="1" as="geometry">
            <mxPoint x="330" y="420" as="sourcePoint" />
            <mxPoint x="440" y="545" as="targetPoint" />
          </mxGeometry>
        </mxCell>
        <mxCell id="JHELf1r17yUJ11uTxtFr-30" value="" style="endArrow=classic;html=1;rounded=0;entryX=0;entryY=0.5;entryDx=0;entryDy=0;" edge="1" parent="1" target="JHELf1r17yUJ11uTxtFr-15">
          <mxGeometry width="50" height="50" relative="1" as="geometry">
            <mxPoint x="330" y="420" as="sourcePoint" />
            <mxPoint x="450" y="555" as="targetPoint" />
          </mxGeometry>
        </mxCell>
        <mxCell id="JHELf1r17yUJ11uTxtFr-31" value="" style="endArrow=classic;html=1;rounded=0;entryX=0;entryY=0.5;entryDx=0;entryDy=0;" edge="1" parent="1" target="vcQ3vcWKIqtt8Fj19UPa-41">
          <mxGeometry width="50" height="50" relative="1" as="geometry">
            <mxPoint x="330" y="420" as="sourcePoint" />
            <mxPoint x="460" y="565" as="targetPoint" />
          </mxGeometry>
        </mxCell>
        <mxCell id="JHELf1r17yUJ11uTxtFr-32" value="" style="endArrow=classic;html=1;rounded=0;entryX=0;entryY=0.5;entryDx=0;entryDy=0;" edge="1" parent="1" target="JHELf1r17yUJ11uTxtFr-11">
          <mxGeometry width="50" height="50" relative="1" as="geometry">
            <mxPoint x="330" y="420" as="sourcePoint" />
            <mxPoint x="440" y="275" as="targetPoint" />
          </mxGeometry>
        </mxCell>
      </root>
    </mxGraphModel>
  </diagram>
</mxfile>
